<?xml version="1.0" encoding="utf-8"?>
<svg xmlns="http://www.w3.org/2000/svg" xml:space="preserve" width="1529.63" height="1539.194" version="1.0">
  <path d="M1187.931 933.924s-52.271 197.17-476.15 197.17c-423.873 0-429.589-162.12-429.083-175.55 5.21-138.074 227.746-86.119 227.746-86.119s-86.897 4.328-86.897 82.26c0 64.939 101.805 115.539 307.315 121.21 418.228 11.549 457.069-138.971 457.069-138.971M862.289 0s151.551 14.993 129.812 179.203c0 0 96.17 62.461 89.14 149.051-7.04 86.584-71.97 188.938-278.994 223.264 0 0 120.265-32.923 124.654-99.879 4.7-71.438-118.681-101.742-118.681-168.844 0-67.105 152.86-76.596 140.58-189.48C940.67 18.708 862.289 0 862.289 0"/>
  <path fill="#1095C2" d="M741.092 341.356c9.644-4.981-8.186-17.92-7.162-40.724 1.17-25.776 11.869-41.641-3.248-41.241-11.835.313-29.35 22.546-26.472 45.182 2.877 22.634 24.53 43.163 36.882 36.783m-16.026 70.003c-12.104 7.963 18.999 16.162 26.467 40.051 8.438 27.002-.923 46.539 20.967 41.717 17.14-3.767 33.941-31.865 20.838-54.442-13.098-22.579-52.76-37.517-68.272-27.326m-50.509-50.514c8.395-6.943-11.71-15.757-15.406-38.268-4.182-25.448 3.003-43.268-11.695-39.622-11.494 2.863-24.029 28.36-16.546 49.869 7.48 21.505 32.884 36.912 43.647 28.021"/>
  <path d="M1158.13 800.358c-60.619-104.835-244.97-133.872-377.111-138.025-114.944-3.611-261.144-11.542-261.144-52.808 0-56.148 163.405-23.711 161.3-92.965-1.887-62.034-154.467-64.028-133.241-217.435 9.846-71.165 97.593-109.797 174.573-126.823 76.982-17.023 174.883-50.401 176.743-92.618 1.87-42.219-43.344-56.646-43.344-56.646s26.625 15.877 16.136 46.897c-10.49 31.028-46.526 33.19-152.84 35.533-90.071 1.989-220.768 12.814-306.788 103.718-90.131 95.258-75.76 251.112 124.402 313.541 0 0-216.017 37.114-211.958 157.293 4.024 119.415 143.126 148.108 359.372 152.602 219.35 4.556 302.45 26.378 302.45 78.082 0 41.92-66.49 65.51-167.515 69.109-106.139 3.801-180.855-11.539-181.559-41.129-.947-39.729 101.024-20.2 101.024-20.2s-37.798-16.594-87.249-14.426c-35.291 1.541-59.682 19.386-60.404 42.205-1.055 33.55 28.996 61.851 110.916 75.41 126.46 20.92 290.356 19.48 396.576-45.46 79.241-48.439 88.391-126.167 59.661-175.855"/>
  <path fill="#1095C2" d="M297.709 1357.354c0 21.029 3.816 26.489 21.747 26.489v6.55h-70.205v-6.55c18.237 0 22.414-4.29 22.414-22.21v-68.17c0-18.31-10.632-30-26.97-30-15.198 0-26.212 7.4-39.125 26.1v75.58c0 14.41 5.697 18.7 22.408 18.7v6.55H155.5v-6.55c20.209-.39 24.021-4.29 24.021-26.489v-179.891c0-17.97-4.957-20.71-24.021-20.71v-6.55l43.56-4.69h6.51v130.811c17.09-20.311 29.63-27.75 47.1-27.75 22.446 0 45.039 15.29 45.039 48.01v60.77m145.697-35.59c0 33.44-13.699 64.931-45.654 64.931-31.204 0-45.659-29.55-45.659-64.931 0-39.659 17.121-65.319 45.659-65.319 31.196-.001 45.654 30.719 45.654 65.319m28.333 0c0-41.989-31.756-73.189-73.987-73.189-42.237 0-73.993 31.2-73.993 73.189 0 41.601 31.756 72.8 73.993 72.8 42.231-.001 73.987-31.2 73.987-72.8m92.393-30.98c-2.659-22.94-17.471-34.6-33.446-34.6-13.36 0-22.524 7.39-22.524 18.659 0 34.99 71.011 25.66 71.011 76.99 0 22.93-19.471 42.47-42.682 42.47-14.843 0-27.78-10.199-34.249-10.199-4.948 0-8.368 4.289-8.751 9.42h-6.417v-47.141h6.417c5.707 28.78 26.637 40.051 43.302 40.051 13.364 0 23.675-10.11 23.675-23.721 0-38.49-71.56-27.99-71.56-74.65 0-21.379 18.495-39.76 41.042-39.76 14.054 0 18.23 6.7 27.344 6.7 3.42 0 6.078-1.97 7.995-6.7h6.553v42.48h-7.71"/>
  <path d="M793.884 1291.044c-2.664-22.94-17.479-34.6-33.446-34.6-13.365 0-22.528 7.39-22.528 18.66 0 35 71.01 25.659 71.01 76.979 0 22.95-19.474 42.479-42.681 42.479-14.843 0-27.781-10.209-34.25-10.209-4.938 0-8.367 4.31-8.752 9.43h-6.415v-47.13h6.415c5.708 28.76 26.641 40.04 43.302 40.04 13.366 0 23.674-10.11 23.674-23.721 0-38.489-71.558-27.989-71.558-74.649 0-21.38 18.495-39.75 41.042-39.75 14.051 0 18.23 6.689 27.344 6.689 3.419 0 6.078-1.97 7.993-6.689h6.554v42.47h-7.704m156.086 7.051h-6.42c-5.739-24.899-22.989-40.859-45.609-40.859-26.827 0-45.611 23.35-45.611 57.2 0 37.75 23.38 69.27 50.971 69.27 16.49 0 36.42-8.95 50.49-28.8v10.12c-14.449 20.239-35.149 30.37-59.685 30.37-40.245 0-67.909-28.421-67.909-69.671 0-42.42 31.109-76.359 69.824-76.359 20.319 0 31.439 7.87 38.34 7.87 3.45 0 6.89-2.761 9.189-7.87h6.42v48.729m74.461 66.23c0 15.229 4.58 19.52 22.5 19.52v6.55H975.5v-6.55c20.601 0 22.89-5.46 22.89-26.55v-75.35c0-20.301-4.959-22.65-27.84-22.65v-6.55l47.37-4.22h6.511v29.909c25.17-22.21 37-29.909 46.149-29.909 7.63 0 17.931 4.619 24.8 10.77l-10.3 24.6c-11.069-6.249-22.89-12.1-32.05-12.1-8.77 0-16.391 4.68-28.6 16.79v75.74m139.21.39c0 13.67 3.431 19.13 22.5 19.13v6.55h-74.109v-6.55c20.6 0 25.56-2.739 25.56-19.13v-84.72c0-19.13-5.72-20.7-25.56-20.7v-6.55l45.1-4.22h6.51v116.19zm3.711-170.7c0 9.311-7.211 17.061-16.32 17.061-9.1 0-16.689-7.75-16.689-17.061 0-9.29 7.59-16.66 16.689-16.66 9.109 0 16.32 7.37 16.32 16.66m69.549 87.85c12.54-14.84 22.8-20.69 36.47-20.69 25.07 0 42.93 26.94 42.93 64.03 0 34.35-18.239 60.51-42.17 60.51-12.91 0-27.35-6.64-37.229-17.18v-86.67zm-26.04 191.05c0 15.19-5.34 19.09-23.65 19.09v6.55h72.11v-6.55c-19 0-22.42-6.24-22.42-22.99v-90.72c15.2 12.061 26.22 16.32 40.649 16.32 38.36 0 67.08-31.54 67.08-74.101 0-41.38-26.04-71.989-61.01-71.989-17.09 0-29.62 6.13-46.72 23.189v-23.189h-6.511l-43.18 4.22v6.55c20.221 0 23.65 2.74 23.65 21.46v192.16m190.092-223.04h46.91v10.22h-46.91v88.79c0 19.08 9.53 28.811 24.41 28.811 9.92 0 17.16-3.88 25.17-13.23l4.2 5.061c-11.82 15.229-25.55 23.069-40.811 23.069-22.92 0-39.01-16.45-39.01-40.2v-92.3h-25.56v-6.68c18.31-9.38 33.6-26.13 45.09-49.9h6.51v46.359"/>
  <path fill="#1095C2" d="M642.96 1251.844h46.913v10.221H642.96v88.79c0 19.09 9.537 28.819 24.411 28.819 9.914 0 17.168-3.899 25.174-13.239l4.195 5.06c-11.821 15.24-25.554 23.069-40.814 23.069-22.917 0-39.008-16.449-39.008-40.199v-92.3h-25.557v-6.681c18.31-9.38 33.599-26.14 45.088-49.89h6.511v46.35m-595.643 189.96c.718.19 1.436.36 2.171.54v.87C10.791 1460.104 0 1475.244 0 1492.134c0 28.141 30.552 47.061 74.644 47.061 52.237 0 93.387-28.45 93.387-64.381 0-10.819-3.436-18.18-12.454-27.279-21.294-21.96-100.929-21.96-112.932-36.471-2.14-2.64-2.996-3.52-2.996-8.789 0-9.681 25.706-27.71 49.271-29.03 31.697-1.75 55.305-30.8 56.469-61.56.447-11.78-1.211-24.74-10.868-40.15l18.139-39.221-5.951-2.699s-17.204 17.41-26.463 18.2c-9.366.789-13.144.76-20.434.31-7.292-.21-14.588-.65-20.165-.65-36.887 0-64.22 27.7-64.22 64.961 0 28.93 17.084 50.399 47.498 58.729v.87c-29.714 10.35-46.449 23.91-46.449 41.85 0 12.669 11.574 22.889 30.841 27.919m-4.557-132.44c0-31.561 15.059-53.04 37.867-53.04 22.37 0 37.43 21.479 37.43 53.04 0 35.939-15.489 56.1-37.866 56.1-22.372 0-37.431-22.35-37.431-56.1m20.328 138.17c72.788 12.57 89.06 21.65 89.06 40.7 0 20.35-23.555 34.2-56.955 34.2-43.233 0-76.204-16.45-76.204-38.53 0-15.59 15.844-28.57 44.099-36.37"/>
  <path d="M1478.521 1232.044c0-13.55 10-23.76 22.82-23.76 12.659 0 22.659 10.21 22.659 23.76 0 13.77-10 23.91-22.659 23.91-12.82 0-22.82-10.141-22.82-23.91m22.82 28.67c15.249 0 28.289-12.11 28.289-28.67 0-16.42-13.04-28.53-28.289-28.53-15.41 0-28.451 12.11-28.451 28.53 0 16.56 13.041 28.67 28.451 28.67m-5.931-26.4h5.63l8.521 14.289h5.479l-9.189-14.52c4.739-.6 8.38-3.18 8.38-9.08 0-6.51-3.79-9.38-11.42-9.38h-12.29v32.979h4.89v-14.288zm0-4.24v-10.22h6.66c3.41 0 7.04.76 7.04 4.85 0 5.07-3.7 5.37-7.85 5.37h-5.85"/>
</svg>